<svg width="50" height="50" viewBox="0 0 50 50" fill="none" xmlns="http://www.w3.org/2000/svg">
<g clip-path="url(#clip0_446_254)">
<path d="M25 50C38.8071 50 50 38.8071 50 25C50 11.1929 38.8071 0 25 0C11.1929 0 0 11.1929 0 25C0 38.8071 11.1929 50 25 50Z" fill="#F0F0F0"/>
<path d="M0 25C0 34.4761 5.27236 42.7201 13.0435 46.9602V3.03973C5.27236 7.27987 0 15.5239 0 25Z" fill="#F0F0F0"/>
<path d="M25 0C20.6689 0 16.5953 1.10186 13.0435 3.03975V46.9602C16.5953 48.8981 20.6689 50 25 50C38.807 50 50 38.807 50 25C50 11.193 38.807 0 25 0Z" fill="#496E2D"/>
<path d="M35.6888 29.1345C32.526 31.4197 28.1094 30.7084 25.8242 27.5457C23.5389 24.3828 24.2503 19.9663 27.4131 17.6811C28.3992 16.9686 29.5072 16.5474 30.6345 16.4011C28.4658 16.0767 26.1734 16.5654 24.2557 17.9511C20.3631 20.7638 19.4874 26.1994 22.3 30.0922C25.1126 33.9847 30.5484 34.8604 34.4411 32.0475C36.359 30.6619 37.5427 28.6391 37.9155 26.4781C37.4228 27.5021 36.675 28.4219 35.6888 29.1345V29.1345Z" fill="#F0F0F0"/>
<path d="M35.5533 16.3046L37.335 18.2246L39.7115 17.1238L38.4359 19.4113L40.2174 21.3315L37.6475 20.8252L36.3719 23.1129L36.0593 20.5123L33.4894 20.0059L35.866 18.9052L35.5533 16.3046Z" fill="#F0F0F0"/>
</g>
<defs>
<clipPath id="clip0_446_254">
<rect width="50" height="50" fill="white"/>
</clipPath>
</defs>
</svg>
